#define test128x64AVRtt_width 128
#define test128x64AVRtt_height 64
static unsigned char test128x64AVRtt_bits[] = {
   0x00, 0x00, 0x00, 0x00, 0x00, 0x00, 0x00, 0x20, 0x00, 0x00, 0x00, 0x00,
   0x00, 0x00, 0x00, 0x00, 0x70, 0x06, 0xfb, 0xe0, 0x0f, 0x00, 0x00, 0x20,
   0x40, 0x00, 0x00, 0xfc, 0x01, 0x40, 0x00, 0x00, 0x70, 0x8c, 0xf9, 0x01,
   0x01, 0x00, 0x00, 0x00, 0x40, 0x00, 0x00, 0x20, 0x00, 0x40, 0x00, 0x00,
   0xd8, 0x8c, 0x99, 0x01, 0xe1, 0x1d, 0x0f, 0x27, 0xce, 0xe3, 0x78, 0x20,
   0x1c, 0xce, 0xe3, 0x78, 0xd8, 0xdc, 0xf9, 0x01, 0x21, 0x20, 0x91, 0x20,
   0x41, 0x10, 0x09, 0x20, 0x22, 0x41, 0x10, 0x09, 0xfc, 0xd9, 0xf8, 0x00,
   0x21, 0x38, 0x91, 0x21, 0x43, 0x10, 0x09, 0x20, 0x3e, 0x43, 0xf0, 0x09,
   0xfc, 0xd9, 0xd8, 0x00, 0x21, 0x24, 0x11, 0x26, 0x4c, 0x10, 0x09, 0x20,
   0x02, 0x4c, 0x10, 0x08, 0x8c, 0x71, 0x98, 0x01, 0x21, 0x24, 0x11, 0x24,
   0x48, 0x10, 0x09, 0x20, 0x02, 0x48, 0x10, 0x08, 0x06, 0x73, 0x18, 0x03,
   0x21, 0x38, 0x91, 0x23, 0x87, 0xe3, 0x08, 0x20, 0x3c, 0x87, 0xe3, 0x09,
   0x00, 0x00, 0x00, 0x00, 0x00, 0x00, 0x00, 0x00, 0x00, 0x00, 0x00, 0x00,
   0x00, 0x00, 0x00, 0x00, 0x00, 0x00, 0x00, 0x00, 0x00, 0x00, 0x00, 0x00,
   0x00, 0x00, 0x00, 0x00, 0x00, 0x00, 0x00, 0x00, 0x00, 0x00, 0x00, 0x00,
   0x00, 0x00, 0x00, 0x00, 0x00, 0x00, 0x00, 0xf8, 0x01, 0x00, 0x00, 0x00,
   0x00, 0x00, 0x00, 0x00, 0x00, 0x00, 0x00, 0x00, 0x00, 0x00, 0x00, 0x08,
   0x01, 0x00, 0x00, 0x00, 0x00, 0x00, 0x00, 0x00, 0x00, 0x00, 0x00, 0x00,
   0x00, 0x00, 0x00, 0x08, 0x01, 0x00, 0x00, 0x00, 0x00, 0x00, 0x00, 0x00,
   0x00, 0x00, 0x00, 0x00, 0x00, 0x00, 0x00, 0x08, 0x01, 0x00, 0x00, 0x00,
   0x00, 0x00, 0x00, 0x00, 0x00, 0x00, 0x00, 0x00, 0x00, 0x00, 0x0c, 0x08,
   0x03, 0x03, 0x00, 0x00, 0x00, 0x00, 0x00, 0x00, 0x00, 0x00, 0x00, 0x00,
   0x00, 0x00, 0x1a, 0x06, 0x86, 0x05, 0x00, 0x00, 0x00, 0x00, 0x00, 0x00,
   0x00, 0x00, 0x00, 0x00, 0x00, 0x00, 0xe1, 0x03, 0x7c, 0x08, 0x00, 0x00,
   0x00, 0x00, 0x00, 0x00, 0x00, 0x00, 0x00, 0x00, 0x00, 0x80, 0x00, 0x00,
   0x20, 0x10, 0x00, 0x00, 0x00, 0x00, 0x00, 0x00, 0x00, 0x00, 0x00, 0x00,
   0x00, 0x00, 0x01, 0x00, 0x00, 0x08, 0x00, 0x00, 0x00, 0x00, 0x00, 0x00,
   0x00, 0x00, 0x00, 0x00, 0x00, 0x00, 0x02, 0x00, 0x00, 0x0c, 0x00, 0x00,
   0x00, 0x00, 0x00, 0x00, 0x00, 0x00, 0x00, 0x00, 0x00, 0x00, 0x06, 0x00,
   0x00, 0x04, 0x00, 0x00, 0x00, 0x00, 0x73, 0xcc, 0xe1, 0x5c, 0x38, 0x33,
   0x00, 0x00, 0x04, 0x00, 0x00, 0x02, 0x00, 0x00, 0x00, 0x80, 0x94, 0x52,
   0x23, 0x56, 0x9a, 0x48, 0x00, 0x00, 0x06, 0x60, 0x00, 0x06, 0x00, 0x00,
   0x00, 0x80, 0x94, 0x5f, 0xe2, 0x52, 0x8a, 0x78, 0x00, 0x00, 0x02, 0x18,
   0x03, 0x04, 0x00, 0x00, 0x00, 0x80, 0x94, 0x42, 0x82, 0x57, 0x8a, 0x08,
   0x00, 0x00, 0x03, 0x04, 0x06, 0x0c, 0x00, 0x00, 0x00, 0x00, 0xf3, 0x4e,
   0xe2, 0x9c, 0x8b, 0x33, 0x00, 0xc0, 0x01, 0x02, 0x04, 0x38, 0x00, 0x00,
   0x00, 0x00, 0x10, 0x00, 0x00, 0x00, 0x00, 0x00, 0x00, 0x38, 0x00, 0x01,
   0x08, 0xc0, 0x01, 0x00, 0x00, 0x00, 0x10, 0x00, 0x10, 0x00, 0x00, 0x00,
   0x00, 0x08, 0x00, 0x01, 0x08, 0x00, 0x01, 0x00, 0x00, 0x00, 0x10, 0x00,
   0x10, 0x00, 0x00, 0x00, 0x00, 0x08, 0x00, 0x01, 0x08, 0x00, 0x01, 0x00,
   0x00, 0x00, 0xf0, 0xce, 0x5d, 0xd2, 0xdd, 0x01, 0x00, 0x08, 0x00, 0x01,
   0x08, 0x00, 0x01, 0x00, 0x00, 0x00, 0x90, 0x50, 0x52, 0x0b, 0x45, 0x02,
   0x00, 0x38, 0x00, 0x01, 0x08, 0xc0, 0x01, 0x00, 0x00, 0x00, 0x90, 0x5e,
   0x12, 0xcd, 0xc5, 0x01, 0x00, 0xc0, 0x01, 0x02, 0x0c, 0x38, 0x00, 0x00,
   0x00, 0x00, 0x90, 0x53, 0x96, 0x2d, 0x45, 0x00, 0x00, 0x00, 0x03, 0x06,
   0x06, 0x08, 0x00, 0x00, 0x00, 0x00, 0x90, 0x5e, 0x9c, 0xc4, 0xc5, 0x01,
   0x00, 0x00, 0x02, 0x0c, 0x03, 0x04, 0x00, 0x00, 0x00, 0x00, 0x00, 0x00,
   0x00, 0x00, 0x00, 0x00, 0x00, 0x00, 0x02, 0x0c, 0x02, 0x04, 0x00, 0x00,
   0x00, 0x00, 0x00, 0x00, 0x00, 0x00, 0x00, 0x00, 0x00, 0x00, 0x04, 0x04,
   0x02, 0x02, 0x00, 0x00, 0x00, 0x00, 0x00, 0x00, 0x00, 0x00, 0x00, 0x00,
   0x00, 0x00, 0x06, 0x04, 0x02, 0x06, 0x00, 0x00, 0x00, 0x00, 0x00, 0x00,
   0x00, 0x00, 0x00, 0x00, 0x00, 0x00, 0x02, 0x02, 0x04, 0x0c, 0x00, 0x00,
   0x00, 0x00, 0x00, 0x00, 0x00, 0x00, 0x00, 0x00, 0x00, 0x00, 0x01, 0x02,
   0x04, 0x08, 0x00, 0x00, 0x00, 0x00, 0x00, 0x00, 0x00, 0x00, 0x00, 0x00,
   0x00, 0x80, 0x01, 0x03, 0x0c, 0x10, 0x00, 0x00, 0x00, 0x00, 0x00, 0x00,
   0x00, 0x00, 0x00, 0x00, 0x00, 0x00, 0xe1, 0x01, 0x78, 0x08, 0x00, 0x00,
   0x00, 0x00, 0x00, 0x00, 0x00, 0x00, 0x00, 0x00, 0x00, 0x00, 0x12, 0x00,
   0x80, 0x04, 0x00, 0x00, 0x00, 0x00, 0x00, 0x00, 0x00, 0x00, 0x00, 0x00,
   0x00, 0x00, 0x0c, 0x00, 0x00, 0x03, 0x00, 0x00, 0x00, 0x00, 0x00, 0x00,
   0x00, 0x00, 0x00, 0x00, 0x00, 0x00, 0x00, 0x00, 0x00, 0x00, 0x00, 0x00,
   0x00, 0x80, 0x02, 0x00, 0x00, 0x00, 0x00, 0x09, 0x00, 0x00, 0x00, 0x00,
   0x00, 0x00, 0x00, 0x02, 0x00, 0x00, 0x02, 0x00, 0x00, 0x10, 0x00, 0x09,
   0x00, 0x00, 0x84, 0x00, 0x02, 0x08, 0x00, 0x01, 0x80, 0x9b, 0xda, 0x8c,
   0x99, 0x73, 0x33, 0x89, 0x19, 0xc7, 0x9c, 0xce, 0x2e, 0x8b, 0x31, 0x01,
   0x80, 0xa4, 0x4a, 0x52, 0xa4, 0x14, 0x49, 0x49, 0x0a, 0x29, 0x85, 0x50,
   0xa2, 0x48, 0x0a, 0x01, 0x80, 0xa4, 0x46, 0x52, 0xa4, 0x14, 0x49, 0xc9,
   0x0b, 0xe9, 0x45, 0x5c, 0xa2, 0xc8, 0xbb, 0x00, 0x80, 0xa4, 0x4a, 0x52,
   0xa4, 0x14, 0x49, 0x49, 0x08, 0x29, 0x44, 0x52, 0xa2, 0x48, 0xa0, 0x00,
   0x80, 0xa4, 0x52, 0x8c, 0x99, 0x64, 0x31, 0x92, 0x4b, 0xc9, 0x59, 0x5c,
   0x2c, 0x93, 0x9b, 0x00, 0x00, 0x00, 0x00, 0x00, 0x00, 0x00, 0x00, 0x00,
   0x00, 0x00, 0x20, 0x00, 0x00, 0x00, 0x40, 0x00, 0x00, 0x00, 0x00, 0x00,
   0x00, 0x00, 0x00, 0x00, 0x00, 0x00, 0x20, 0x00, 0x00, 0x00, 0x40, 0x00,
   0x00, 0x00, 0x00, 0x00, 0x00, 0x00, 0x00, 0x00, 0x00, 0x00, 0x00, 0x00,
   0x00, 0x00, 0x00, 0x00, 0x00, 0x00, 0x00, 0x00, 0x00, 0x00, 0x08, 0x00,
   0x00, 0x00, 0x00, 0x00, 0x00, 0x00, 0x00, 0x00, 0x00, 0x12, 0x3d, 0xf0,
   0x01, 0x00, 0x00, 0x02, 0x20, 0x00, 0x04, 0x00, 0x00, 0x00, 0x00, 0x00,
   0x00, 0x15, 0x45, 0x40, 0xec, 0x1c, 0xcb, 0xce, 0xec, 0x8c, 0x9d, 0x19,
   0x00, 0x00, 0x00, 0x00, 0x00, 0xa5, 0x44, 0x40, 0x04, 0xa5, 0x28, 0x22,
   0x25, 0x52, 0x44, 0x0a, 0x00, 0x00, 0x00, 0x00, 0x00, 0xa5, 0x3c, 0x40,
   0xc4, 0xa5, 0xeb, 0x22, 0x25, 0xde, 0xc5, 0x0b, 0x00, 0x00, 0x00, 0x00,
   0x80, 0xaf, 0x24, 0x40, 0x24, 0x25, 0x8a, 0x22, 0x25, 0x02, 0x45, 0x08,
   0x00, 0x00, 0x00, 0x00, 0x80, 0x48, 0x44, 0x40, 0xc4, 0xa5, 0x69, 0xcc,
   0xc4, 0xdc, 0x98, 0x0b, 0x00, 0x00, 0x00, 0x00, 0x00, 0x00, 0x00, 0x00,
   0x00, 0x00, 0x00, 0x00, 0x00, 0x00, 0x00, 0x00, 0x00, 0x00, 0x00, 0x00,
   0x00, 0x00, 0x80, 0x07, 0x00, 0x00, 0x00, 0x00, 0x00, 0x00, 0x00, 0x00,
   0x00, 0x00, 0x00, 0x00 };
